<svg width="100%" viewBox="0 0 680 624" role="img" xmlns="http://www.w3.org/2000/svg" font-family="'Segoe UI','PingFang SC','Microsoft YaHei',Arial,sans-serif">
<title>金融研报智能问答 RAG 全链路架构</title>
<desc>从研报 PDF 经数据层、检索层、生成层、Agent 层到服务层的五层流水线，右侧标注各层差异化亮点。</desc>
<defs>
<marker id="arrow" viewBox="0 0 10 10" refX="8" refY="5" markerWidth="7" markerHeight="7" orient="auto-start-reverse">
<path d="M2 1L8 5L2 9" fill="none" stroke="#94A3B8" stroke-width="1.6" stroke-linecap="round" stroke-linejoin="round"/>
</marker>
</defs>
<rect x="0.5" y="0.5" width="679" height="623" rx="16" fill="#FFFFFF" stroke="#E2E8F0"/>

<text x="40" y="44" fill="#0F172A" font-size="20" font-weight="600">金融研报智能问答 RAG · 全链路架构</text>
<text x="40" y="65" fill="#64748B" font-size="12.5">全栈自研 · 未用 LangChain ｜ 8 行业 / 22 标的 / 300+ 篇研报</text>

<rect x="210" y="84" width="260" height="46" rx="10" fill="#1E293B"/>
<text x="340" y="105" fill="#FFFFFF" font-size="14.5" font-weight="600" text-anchor="middle">券商研报 PDF</text>
<text x="340" y="121" fill="#94A3B8" font-size="11" text-anchor="middle">非结构化原始输入</text>
<line x1="340" y1="132" x2="340" y2="156" stroke="#94A3B8" stroke-width="1.6" marker-end="url(#arrow)"/>

<rect x="70" y="158" width="540" height="64" rx="12" fill="#EEF2FF" stroke="#C7D2FE"/>
<text x="90" y="186" fill="#1E293B" font-size="15" font-weight="600">① 数据层 · 解析与入库</text>
<text x="90" y="207" fill="#475569" font-size="12.5">DeepDOC 解析 · 表格转自然语言 · 父子分块</text>
<rect x="468" y="172" width="124" height="26" rx="13" fill="#0D9488"/>
<text x="530" y="189" fill="#FFFFFF" font-size="11" font-weight="500" text-anchor="middle">子进程级超时入库</text>
<line x1="340" y1="222" x2="340" y2="246" stroke="#94A3B8" stroke-width="1.6" marker-end="url(#arrow)"/>

<rect x="70" y="248" width="540" height="64" rx="12" fill="#EEF2FF" stroke="#C7D2FE"/>
<text x="90" y="276" fill="#1E293B" font-size="15" font-weight="600">② 检索层 · 混合检索</text>
<text x="90" y="297" fill="#475569" font-size="12.5">BM25 + 微调 bge + 加权 RRF + 微调 reranker</text>
<rect x="468" y="262" width="124" height="26" rx="13" fill="#0D9488"/>
<text x="530" y="279" fill="#FFFFFF" font-size="11" font-weight="500" text-anchor="middle">领域微调 · 泛化</text>
<line x1="340" y1="312" x2="340" y2="336" stroke="#94A3B8" stroke-width="1.6" marker-end="url(#arrow)"/>

<rect x="70" y="338" width="540" height="64" rx="12" fill="#EEF2FF" stroke="#C7D2FE"/>
<text x="90" y="366" fill="#1E293B" font-size="15" font-weight="600">③ 生成层 · 跨机构聚合</text>
<text x="90" y="387" fill="#475569" font-size="12.5">盈利预测聚合 · 多机构观点聚合</text>
<rect x="468" y="352" width="124" height="26" rx="13" fill="#0D9488"/>
<text x="530" y="369" fill="#FFFFFF" font-size="11" font-weight="500" text-anchor="middle">双重防幻觉</text>
<line x1="340" y1="402" x2="340" y2="426" stroke="#94A3B8" stroke-width="1.6" marker-end="url(#arrow)"/>

<rect x="70" y="428" width="540" height="64" rx="12" fill="#EEF2FF" stroke="#C7D2FE"/>
<text x="90" y="456" fill="#1E293B" font-size="15" font-weight="600">④ Agent 层 · 调度与编排</text>
<text x="90" y="477" fill="#475569" font-size="12.5">8 工具调度 · Planner → 并行 Workers → Aggregator</text>
<rect x="468" y="442" width="124" height="26" rx="13" fill="#0D9488"/>
<text x="530" y="459" fill="#FFFFFF" font-size="11" font-weight="500" text-anchor="middle">自研 harness</text>
<line x1="340" y1="492" x2="340" y2="516" stroke="#94A3B8" stroke-width="1.6" marker-end="url(#arrow)"/>

<rect x="70" y="518" width="540" height="64" rx="12" fill="#E0F2FE" stroke="#BAE6FD"/>
<text x="90" y="546" fill="#1E293B" font-size="15" font-weight="600">⑤ 服务层 · 对外能力</text>
<text x="90" y="567" fill="#475569" font-size="12.5">FastAPI 服务 · Streamlit Demo UI</text>
<rect x="468" y="532" width="124" height="26" rx="13" fill="#0D9488"/>
<text x="530" y="549" fill="#FFFFFF" font-size="11" font-weight="500" text-anchor="middle">QPS 5 → 232</text>

<line x1="40" y1="600" x2="640" y2="600" stroke="#E2E8F0" stroke-width="1"/>
<text x="40" y="616" fill="#64748B" font-size="11.5">横切能力：领域微调 bge / reranker · R1 思维链蒸馏小模型核查 · 检索 / 生成 / Agent 多层评测</text>
</svg>
